<svg id="Layer_3" data-name="Layer 3" xmlns="http://www.w3.org/2000/svg" viewBox="0 0 196.06 191.69"><defs><style>.cls-1{fill:#fff;}</style></defs><path class="cls-1" d="M415.87,446.33V433.05c13.61,0,23.77-.87,31.56,9.39,8.18,10.77,8.73,27.88,1.28,39.26s-21.55,16.51-35.45,13.13c-11.58-3.45-18.69-11.09-20.83-22.48-1.68-10.24-1.61-16.82-1.61-29.8-.37-19.78-.11-31.26-.12-51v-7.79c-14.39-11.63-30.48-6.56-40.4,12.59-3.68-11.19-11-17.54-22.33-18.47s-19.88,4.14-26,14.67c1.13-38.81,36.67-89.14,100.29-88.35,50.35.63,98.66,45.09,95.64,87.24-12.57-20.07-40.28-17.87-48.59,4.94-3.37-10.44-10-16.76-20.35-18.3-8.33-1.24-15.82.85-22.13,6.9-.11,2-.3,3.85-.3,5.72,0,22.84-.07,37.38.07,60.23-.1,10.6.1,10.39.82,15.27a15.65,15.65,0,0,0,14.57,13c6.4.29,12.72-4.85,14.6-12.16C439.52,455.66,433.65,443.9,415.87,446.33Z" transform="translate(-301.97 -304.16)"/></svg>