<svg id="Layer_3" data-name="Layer 3" xmlns="http://www.w3.org/2000/svg" viewBox="0 0 205.35 140.66"><defs><style>.cls-1{fill:#fff;}</style></defs><path class="cls-1" d="M464.09,407.51a7.68,7.68,0,0,1-7.69-7.67,24.36,24.36,0,1,0-48.7,0,7.73,7.73,0,0,1-.53,3,7.68,7.68,0,0,1-4.17,4.28,7.7,7.7,0,0,1-8.51-1.72,7.65,7.65,0,0,1-2.17-5.56,39.74,39.74,0,0,1,79.47,0,7.68,7.68,0,0,1-2.26,5.43,7.71,7.71,0,0,1-5.44,2.24Z" transform="translate(-297.32 -329.67)"/><path class="cls-1" d="M368,439.49a39.74,39.74,0,0,1-39.74-39.66,7.69,7.69,0,0,1,4.7-7.28,7.72,7.72,0,0,1,8.51,1.72,7.87,7.87,0,0,1,1.65,2.56,7.72,7.72,0,0,1,.52,3,24.36,24.36,0,0,0,48.7,0,7.69,7.69,0,0,1,15.38,0A39.74,39.74,0,0,1,368,439.49Z" transform="translate(-297.32 -329.67)"/><path class="cls-1" d="M495,407.51a7.68,7.68,0,0,1-7.69-7.67,55.25,55.25,0,0,0-110.49,0,7.69,7.69,0,0,1-15.37,0,70.63,70.63,0,0,1,141.25,0,7.68,7.68,0,0,1-2.26,5.43,7.76,7.76,0,0,1-2.49,1.66A7.68,7.68,0,0,1,495,407.51Z" transform="translate(-297.32 -329.67)"/><path class="cls-1" d="M368,470.33a70.64,70.64,0,0,1-70.63-70.49,7.69,7.69,0,0,1,15.38,0,55.25,55.25,0,1,0,110.49,0,7.69,7.69,0,0,1,15.37,0A70.64,70.64,0,0,1,368,470.33Z" transform="translate(-297.32 -329.67)"/><path class="cls-1" d="M479.53,422.93a23.15,23.15,0,0,1-23.14-23.1,7.73,7.73,0,0,1,.53-3,7.56,7.56,0,0,1,1.65-2.56,7.72,7.72,0,0,1,5.51-2.33,7.67,7.67,0,0,1,7.69,7.89,7.76,7.76,0,0,0,10.81,7.47,7.79,7.79,0,0,0,2.56-1.77,7.78,7.78,0,0,0,2.14-5.7,7.69,7.69,0,0,1,4.7-7.28,7.72,7.72,0,0,1,8.51,1.72,7.87,7.87,0,0,1,1.65,2.56,7.72,7.72,0,0,1,.52,3,23.15,23.15,0,0,1-23.13,23.1Z" transform="translate(-297.32 -329.67)"/><path class="cls-1" d="M335.91,406.94a7.68,7.68,0,0,1-7.69-7.68,7.76,7.76,0,1,0-15.52,0,7.69,7.69,0,0,1-15.37,0,23.14,23.14,0,0,1,46.28,0,7.73,7.73,0,0,1-2.26,5.44,7.7,7.7,0,0,1-2.5,1.66A7.78,7.78,0,0,1,335.91,406.94Z" transform="translate(-297.32 -329.67)"/></svg>