<?xml version="1.0" encoding="utf-8"?>
<!-- Generator: Adobe Illustrator 26.0.2, SVG Export Plug-In . SVG Version: 6.00 Build 0)  -->
<svg version="1.1" id="Layer_1" xmlns="http://www.w3.org/2000/svg" xmlns:xlink="http://www.w3.org/1999/xlink" x="0px" y="0px"
	 viewBox="0 0 150 150" style="enable-background:new 0 0 150 150;" xml:space="preserve">
<g>
	<path d="M45.1,52.8l-7.4,16.8h-2.4l-7.4-16.8h2.6l6,13.8l6.1-13.8H45.1z"/>
	<path d="M47.7,52.9c0-0.8,0.7-1.5,1.6-1.5s1.6,0.6,1.6,1.5c0,0.9-0.6,1.5-1.6,1.5C48.4,54.4,47.7,53.8,47.7,52.9z M48.1,56.9h2.3
		v12.7h-2.3V56.9z"/>
	<path d="M67.5,64H57.1c0.3,2.2,2.1,3.7,4.6,3.7c1.5,0,2.7-0.5,3.7-1.5l1.3,1.5c-1.2,1.3-2.9,2.1-5,2.1c-4.1,0-6.8-2.7-6.8-6.5
		c0-3.8,2.7-6.5,6.4-6.5s6.3,2.6,6.3,6.6C67.5,63.5,67.5,63.8,67.5,64z M57.1,62.3h8.2c-0.2-2.1-1.8-3.6-4.1-3.6
		C59,58.7,57.4,60.2,57.1,62.3z"/>
	<path d="M90.9,56.9l-4.8,12.7h-2.2l-3.7-9.6l-3.7,9.6h-2.2l-4.7-12.7h2.2L75.5,67l3.8-10.1h1.9L85,67l3.8-10.2H90.9z"/>
	<path d="M101.7,52.9c0-0.8,0.7-1.5,1.6-1.5c0.9,0,1.6,0.6,1.6,1.5c0,0.9-0.6,1.5-1.6,1.5C102.3,54.4,101.7,53.8,101.7,52.9z
		 M102.1,56.9h2.3v12.7h-2.3V56.9z"/>
	<path d="M122.1,62.3v7.3h-2.3v-7.1c0-2.5-1.2-3.7-3.4-3.7c-2.4,0-4,1.5-4,4.2v6.6H110V56.9h2.2v1.9c0.9-1.3,2.6-2,4.6-2
		C119.9,56.7,122.1,58.5,122.1,62.3z"/>
	<path d="M45.2,89.9h2.3v6.6c-1.7,1.4-4,2.1-6.4,2.1c-5.2,0-9-3.6-9-8.6c0-5,3.8-8.6,9-8.6c2.7,0,4.9,0.9,6.5,2.6l-1.5,1.5
		c-1.4-1.3-3-1.9-4.9-1.9c-3.9,0-6.7,2.7-6.7,6.5c0,3.7,2.8,6.5,6.7,6.5c1.4,0,2.7-0.3,3.9-1.1V89.9z"/>
	<path d="M52.5,81.7c0-0.8,0.7-1.5,1.6-1.5s1.6,0.6,1.6,1.5c0,0.9-0.6,1.5-1.6,1.5C53.2,83.2,52.5,82.6,52.5,81.7z M52.9,85.7h2.3
		v12.7h-2.3V85.7z"/>
	<path d="M68,97.6c-0.7,0.6-1.8,0.9-2.8,0.9c-2.6,0-4-1.4-4-4v-7H59v-1.9h2.2v-2.8h2.3v2.8h3.6v1.9h-3.6v6.9c0,1.4,0.7,2.1,2,2.1
		c0.7,0,1.3-0.2,1.8-0.6L68,97.6z"/>
	<path d="M84,91.1v7.3h-2.3v-7.1c0-2.5-1.2-3.7-3.4-3.7c-2.4,0-4,1.5-4,4.2v6.6h-2.3V80.6h2.3v6.9c1-1.2,2.5-1.9,4.5-1.9
		C81.8,85.5,84,87.3,84,91.1z"/>
	<path d="M101.3,85.7v12.7h-2.2v-1.9c-0.9,1.3-2.5,2.1-4.3,2.1c-3.3,0-5.5-1.8-5.5-5.5v-7.3h2.3v7.1c0,2.5,1.2,3.7,3.4,3.7
		c2.4,0,3.9-1.5,3.9-4.2v-6.6H101.3z"/>
	<path d="M120.1,92c0,3.9-2.7,6.5-6.4,6.5c-1.9,0-3.5-0.7-4.5-2.2v2h-2.2V80.6h2.3v7c1.1-1.4,2.6-2,4.4-2
		C117.4,85.5,120.1,88.1,120.1,92z M117.8,92c0-2.7-1.8-4.5-4.3-4.5c-2.4,0-4.3,1.8-4.3,4.5c0,2.7,1.8,4.5,4.3,4.5
		C115.9,96.5,117.8,94.7,117.8,92z"/>
</g>
</svg>
